<svg width="151" height="151" viewBox="0 0 151 151" fill="none" xmlns="http://www.w3.org/2000/svg">
<circle cx="75.5" cy="75.5" r="75.5" fill="#B5E0FF"/>
<circle cx="71.5" cy="59.5" r="19.5" fill="#FDFDFD"/>
<circle cx="102.5" cy="63.5" r="15.5" fill="#FDFDFD"/>
<circle cx="102.5" cy="63.5" r="9.5" fill="black"/>
<circle cx="72" cy="59" r="12" fill="black"/>
<path d="M81.538 117.287L66.4881 115.201C55.8403 113.725 48.5422 103.709 50.3997 93.1216L50.6303 91.8074C51.2948 88.0197 55.5281 86.0512 58.8526 87.9841L68.373 93.5192C71.731 95.4715 75.5462 96.5 79.4306 96.5H93.4198C97.1725 96.5 100.07 99.7996 99.5843 103.521C98.4359 112.325 90.3327 118.507 81.538 117.287Z" fill="black" stroke="black" stroke-width="3"/>
<path d="M51.1094 103.869L61.3909 107.78L56.2366 121.333C55.1568 124.172 51.9799 125.598 49.1407 124.518V124.518C46.3016 123.438 44.8753 120.262 45.9551 117.422L51.1094 103.869Z" fill="#F94F4F"/>
<ellipse cx="56.2502" cy="105.824" rx="5.5" ry="2" transform="rotate(20.8223 56.2502 105.824)" fill="#F94F4F"/>
</svg>
